# xmcd
#
# Track frame offsets:
#	150
#	15295
#	33875
#	49712
#	64904
#	84947
#	103282
#	118713
#	136666
#	156027
#	172561
#	191318
#	210436
#	228515
#	245814
#	263098
#	282940
#
# Disc length: 4104 seconds
#
# Revision: 1
# Processed by: cddbd v1.5.2PL0 Copyright (c) Steve Scherf et al.
# Submitted via: EZCDAudioConverter 6.2.3.1
#
DISCID=d4100611
DTITLE=Paula Fernandes - O Melhor De
DYEAR=1900
DGENRE=Sertanejo
TTITLE0=Traidor
TTITLE1=Cicatriz
TTITLE2=Depende Da Gente
TTITLE3=Não Precisa
TTITLE4=Olhos De Céu
TTITLE5=Piração
TTITLE6=Se Tudo Fosse Fácil (Part. Michel Teló)
TTITLE7=A Paz Desse Amor
TTITLE8=Pássaro De Fogo
TTITLE9=Meu Eu Em Você
TTITLE10=Eu Sem Você
TTITLE11=Sensações
TTITLE12=Não Fui Eu
TTITLE13=Se O Coração Viajar
TTITLE14=Pegando Lágrimas Part. Chitãozinho E Xororó)
TTITLE15=Um Ser Amor
TTITLE16=Medley Shania Twain
EXTD=
EXTT0=
EXTT1=
EXTT2=
EXTT3=
EXTT4=
EXTT5=
EXTT6=
EXTT7=
EXTT8=
EXTT9=
EXTT10=
EXTT11=
EXTT12=
EXTT13=
EXTT14=
EXTT15=
EXTT16=
PLAYORDER=
